<svg viewBox="0 0 24 24" fill="currentColor" xmlns="http://www.w3.org/2000/svg">
  <path
    fillRule="evenodd"
    clipRule="evenodd"
    d="M10.835 12.007l.002.354c.012 1.404.096 2.657.242 3.451 0 .015.16.802.261 1.064.16.38.447.701.809.905a2 2 0 00.91.219c.249-.012.66-.137.954-.242l.244-.094c1.617-.642 4.707-2.74 5.891-4.024l.087-.09.39-.42c.245-.322.375-.715.375-1.138 0-.379-.116-.758-.347-1.064-.07-.099-.18-.226-.28-.334l-.379-.397c-1.305-1.321-4.129-3.175-5.593-3.79 0-.013-.91-.393-1.343-.407h-.057c-.665 0-1.286.379-1.603.991-.087.168-.17.496-.233.784l-.114.544c-.13.874-.216 2.216-.216 3.688zm-6.332-1.525C3.673 10.482 3 11.162 3 12a1.51 1.51 0 001.503 1.518l3.7-.328c.65 0 1.179-.532 1.179-1.19 0-.658-.528-1.191-1.18-1.191l-3.699-.327z"
  ></path>
</svg>